<mxfile host="app.diagrams.net" modified="2023-12-28T00:53:35.347Z" agent="Mozilla/5.0 (Windows NT 10.0; Win64; x64) AppleWebKit/537.36 (KHTML, like Gecko) Chrome/120.0.0.0 Safari/537.36" etag="A48qCG--RzYWleHSX4Kv" version="22.1.15" type="github">
  <diagram name="第 1 页" id="9V1ebuacdXuoeA5cvaG8">
    <mxGraphModel dx="1183" dy="632" grid="1" gridSize="10" guides="1" tooltips="1" connect="1" arrows="1" fold="1" page="1" pageScale="1" pageWidth="827" pageHeight="1169" math="0" shadow="0">
      <root>
        <mxCell id="0" />
        <mxCell id="1" parent="0" />
        <mxCell id="lHHxEUQEhCc_uOO8Jhd7-14" value="" style="rounded=0;whiteSpace=wrap;html=1;fillColor=#E6E6E6;strokeColor=#82b366;opacity=50;" vertex="1" parent="1">
          <mxGeometry x="436.5" y="490" width="193.5" height="100" as="geometry" />
        </mxCell>
        <mxCell id="lHHxEUQEhCc_uOO8Jhd7-13" value="" style="rounded=0;whiteSpace=wrap;html=1;fillColor=#E6E6E6;strokeColor=#82b366;opacity=50;" vertex="1" parent="1">
          <mxGeometry x="219" y="490" width="191" height="100" as="geometry" />
        </mxCell>
        <mxCell id="hLteAHFwZHsYNq_SP1KF-1" value="CCU" style="rounded=0;whiteSpace=wrap;html=1;fillColor=#dae8fc;strokeColor=#6c8ebf;" parent="1" vertex="1">
          <mxGeometry x="160" y="330" width="80" height="60" as="geometry" />
        </mxCell>
        <mxCell id="l1ArFm3nqkwlllE_89NU-13" value="" style="shape=hexagon;perimeter=hexagonPerimeter2;whiteSpace=wrap;html=1;fixedSize=1;rotation=-90;fillColor=#d5e8d4;strokeColor=#82b366;" parent="1" vertex="1">
          <mxGeometry x="233" y="530" width="84" height="20" as="geometry" />
        </mxCell>
        <mxCell id="l1ArFm3nqkwlllE_89NU-10" value="燃油喷射" style="shape=hexagon;perimeter=hexagonPerimeter2;whiteSpace=wrap;html=1;fixedSize=1;rotation=-90;fillColor=#d5e8d4;strokeColor=#82b366;" parent="1" vertex="1">
          <mxGeometry x="240" y="530" width="84" height="20" as="geometry" />
        </mxCell>
        <mxCell id="l1ArFm3nqkwlllE_89NU-15" value="" style="shape=hexagon;perimeter=hexagonPerimeter2;whiteSpace=wrap;html=1;fixedSize=1;rotation=-90;fillColor=#d5e8d4;strokeColor=#82b366;" parent="1" vertex="1">
          <mxGeometry x="274" y="530" width="84" height="20" as="geometry" />
        </mxCell>
        <mxCell id="l1ArFm3nqkwlllE_89NU-16" value="燃气喷射" style="shape=hexagon;perimeter=hexagonPerimeter2;whiteSpace=wrap;html=1;fixedSize=1;rotation=-90;fillColor=#d5e8d4;strokeColor=#82b366;" parent="1" vertex="1">
          <mxGeometry x="281" y="530" width="84" height="20" as="geometry" />
        </mxCell>
        <mxCell id="l1ArFm3nqkwlllE_89NU-17" value="排气阀" style="shape=hexagon;perimeter=hexagonPerimeter2;whiteSpace=wrap;html=1;fixedSize=1;rotation=-90;fillColor=#d5e8d4;strokeColor=#82b366;" parent="1" vertex="1">
          <mxGeometry x="312" y="530" width="84" height="20" as="geometry" />
        </mxCell>
        <mxCell id="l1ArFm3nqkwlllE_89NU-18" value="" style="shape=hexagon;perimeter=hexagonPerimeter2;whiteSpace=wrap;html=1;fixedSize=1;rotation=-90;fillColor=#d5e8d4;strokeColor=#82b366;" parent="1" vertex="1">
          <mxGeometry x="345" y="530" width="84" height="20" as="geometry" />
        </mxCell>
        <mxCell id="l1ArFm3nqkwlllE_89NU-20" value="MCU" style="rounded=0;whiteSpace=wrap;html=1;fillColor=#fff2cc;strokeColor=#d6b656;" parent="1" vertex="1">
          <mxGeometry x="210" y="120" width="86" height="60" as="geometry" />
        </mxCell>
        <mxCell id="l1ArFm3nqkwlllE_89NU-23" value="GTU" style="rounded=0;whiteSpace=wrap;html=1;fillColor=#e1d5e7;strokeColor=#9673a6;" parent="1" vertex="1">
          <mxGeometry x="410" y="120" width="90" height="60" as="geometry" />
        </mxCell>
        <mxCell id="l1ArFm3nqkwlllE_89NU-25" value="" style="shape=link;html=1;rounded=0;edgeStyle=orthogonalEdgeStyle;entryX=0.5;entryY=0;entryDx=0;entryDy=0;strokeWidth=2;strokeColor=#66B2FF;" parent="1" source="hLteAHFwZHsYNq_SP1KF-1" edge="1">
          <mxGeometry width="100" relative="1" as="geometry">
            <mxPoint x="20" y="330" as="sourcePoint" />
            <mxPoint x="650" y="330" as="targetPoint" />
            <Array as="points">
              <mxPoint x="200" y="250" />
              <mxPoint x="650" y="250" />
            </Array>
          </mxGeometry>
        </mxCell>
        <mxCell id="l1ArFm3nqkwlllE_89NU-26" value="" style="shape=link;html=1;rounded=0;edgeStyle=orthogonalEdgeStyle;exitX=0.5;exitY=1;exitDx=0;exitDy=0;strokeWidth=2;strokeColor=#66B2FF;" parent="1" edge="1">
          <mxGeometry width="100" relative="1" as="geometry">
            <mxPoint x="245.99000000000012" y="180" as="sourcePoint" />
            <mxPoint x="228.99" y="250" as="targetPoint" />
            <Array as="points">
              <mxPoint x="245.99" y="250" />
            </Array>
          </mxGeometry>
        </mxCell>
        <mxCell id="l1ArFm3nqkwlllE_89NU-28" value="" style="shape=link;html=1;rounded=0;edgeStyle=orthogonalEdgeStyle;strokeWidth=2;strokeColor=#66B2FF;" parent="1" edge="1">
          <mxGeometry width="100" relative="1" as="geometry">
            <mxPoint x="290" y="330" as="sourcePoint" />
            <mxPoint x="270" y="250" as="targetPoint" />
            <Array as="points">
              <mxPoint x="290" y="330" />
              <mxPoint x="290" y="250" />
            </Array>
          </mxGeometry>
        </mxCell>
        <mxCell id="l1ArFm3nqkwlllE_89NU-29" value="" style="shape=link;html=1;rounded=0;edgeStyle=orthogonalEdgeStyle;exitX=0.5;exitY=1;exitDx=0;exitDy=0;strokeWidth=2;strokeColor=#66B2FF;" parent="1" edge="1">
          <mxGeometry width="100" relative="1" as="geometry">
            <mxPoint x="345.0000000000001" y="180" as="sourcePoint" />
            <mxPoint x="328" y="250" as="targetPoint" />
            <Array as="points">
              <mxPoint x="345" y="250" />
            </Array>
          </mxGeometry>
        </mxCell>
        <mxCell id="l1ArFm3nqkwlllE_89NU-30" value="" style="shape=link;html=1;rounded=0;edgeStyle=orthogonalEdgeStyle;strokeWidth=2;strokeColor=#66B2FF;" parent="1" edge="1">
          <mxGeometry width="100" relative="1" as="geometry">
            <mxPoint x="376.97" y="330" as="sourcePoint" />
            <mxPoint x="356.97" y="250" as="targetPoint" />
            <Array as="points">
              <mxPoint x="376.97" y="330" />
              <mxPoint x="376.97" y="250" />
            </Array>
          </mxGeometry>
        </mxCell>
        <mxCell id="l1ArFm3nqkwlllE_89NU-32" value="" style="shape=link;html=1;rounded=0;edgeStyle=orthogonalEdgeStyle;strokeWidth=2;strokeColor=#66B2FF;" parent="1" edge="1">
          <mxGeometry width="100" relative="1" as="geometry">
            <mxPoint x="468" y="330" as="sourcePoint" />
            <mxPoint x="448" y="250" as="targetPoint" />
            <Array as="points">
              <mxPoint x="468" y="330" />
              <mxPoint x="468" y="250" />
            </Array>
          </mxGeometry>
        </mxCell>
        <mxCell id="l1ArFm3nqkwlllE_89NU-34" value="" style="shape=link;html=1;rounded=0;edgeStyle=orthogonalEdgeStyle;strokeWidth=2;strokeColor=#66B2FF;" parent="1" edge="1">
          <mxGeometry width="100" relative="1" as="geometry">
            <mxPoint x="560" y="330" as="sourcePoint" />
            <mxPoint x="540" y="250" as="targetPoint" />
            <Array as="points">
              <mxPoint x="560" y="330" />
              <mxPoint x="560" y="250" />
            </Array>
          </mxGeometry>
        </mxCell>
        <mxCell id="l1ArFm3nqkwlllE_89NU-35" value="" style="shape=hexagon;perimeter=hexagonPerimeter2;whiteSpace=wrap;html=1;fixedSize=1;rotation=-90;fillColor=#fad9d5;strokeColor=#ae4132;" parent="1" vertex="1">
          <mxGeometry x="410" y="530" width="84" height="20" as="geometry" />
        </mxCell>
        <mxCell id="l1ArFm3nqkwlllE_89NU-36" value="" style="shape=hexagon;perimeter=hexagonPerimeter2;whiteSpace=wrap;html=1;fixedSize=1;rotation=-90;fillColor=#fad9d5;strokeColor=#ae4132;" parent="1" vertex="1">
          <mxGeometry x="416" y="530" width="84" height="20" as="geometry" />
        </mxCell>
        <mxCell id="l1ArFm3nqkwlllE_89NU-37" value="" style="shape=hexagon;perimeter=hexagonPerimeter2;whiteSpace=wrap;html=1;fixedSize=1;rotation=-90;fillColor=#fad9d5;strokeColor=#ae4132;" parent="1" vertex="1">
          <mxGeometry x="422" y="530" width="84" height="20" as="geometry" />
        </mxCell>
        <mxCell id="l1ArFm3nqkwlllE_89NU-38" value="HALL*4" style="shape=hexagon;perimeter=hexagonPerimeter2;whiteSpace=wrap;html=1;fixedSize=1;rotation=-90;fillColor=#fad9d5;strokeColor=#ae4132;" parent="1" vertex="1">
          <mxGeometry x="428" y="530" width="84" height="20" as="geometry" />
        </mxCell>
        <mxCell id="l1ArFm3nqkwlllE_89NU-65" value="GTU" style="rounded=0;whiteSpace=wrap;html=1;fillColor=#e1d5e7;strokeColor=#9673a6;" parent="1" vertex="1">
          <mxGeometry x="515" y="120" width="90" height="60" as="geometry" />
        </mxCell>
        <mxCell id="l1ArFm3nqkwlllE_89NU-66" value="气缸注油" style="shape=hexagon;perimeter=hexagonPerimeter2;whiteSpace=wrap;html=1;fixedSize=1;rotation=-90;fillColor=#d5e8d4;strokeColor=#82b366;" parent="1" vertex="1">
          <mxGeometry x="352" y="530" width="84" height="20" as="geometry" />
        </mxCell>
        <mxCell id="l1ArFm3nqkwlllE_89NU-67" value="CCU" style="rounded=0;whiteSpace=wrap;html=1;fillColor=#dae8fc;strokeColor=#6c8ebf;" parent="1" vertex="1">
          <mxGeometry x="250" y="330" width="80" height="60" as="geometry" />
        </mxCell>
        <mxCell id="l1ArFm3nqkwlllE_89NU-68" value="CCU" style="rounded=0;whiteSpace=wrap;html=1;fillColor=#dae8fc;strokeColor=#6c8ebf;" parent="1" vertex="1">
          <mxGeometry x="339" y="330" width="80" height="60" as="geometry" />
        </mxCell>
        <mxCell id="l1ArFm3nqkwlllE_89NU-69" value="CCU" style="rounded=0;whiteSpace=wrap;html=1;fillColor=#dae8fc;strokeColor=#6c8ebf;" parent="1" vertex="1">
          <mxGeometry x="428" y="330" width="80" height="60" as="geometry" />
        </mxCell>
        <mxCell id="l1ArFm3nqkwlllE_89NU-70" value="CCU" style="rounded=0;whiteSpace=wrap;html=1;fillColor=#dae8fc;strokeColor=#6c8ebf;" parent="1" vertex="1">
          <mxGeometry x="520" y="330" width="80" height="60" as="geometry" />
        </mxCell>
        <mxCell id="l1ArFm3nqkwlllE_89NU-71" value="CCU" style="rounded=0;whiteSpace=wrap;html=1;fillColor=#dae8fc;strokeColor=#6c8ebf;" parent="1" vertex="1">
          <mxGeometry x="610" y="330" width="80" height="60" as="geometry" />
        </mxCell>
        <mxCell id="l1ArFm3nqkwlllE_89NU-72" value="MCU" style="rounded=0;whiteSpace=wrap;html=1;fillColor=#fff2cc;strokeColor=#d6b656;" parent="1" vertex="1">
          <mxGeometry x="310" y="120" width="86" height="60" as="geometry" />
        </mxCell>
        <mxCell id="l1ArFm3nqkwlllE_89NU-75" value="" style="shape=link;html=1;rounded=0;edgeStyle=orthogonalEdgeStyle;exitX=0.5;exitY=1;exitDx=0;exitDy=0;strokeWidth=2;strokeColor=#66B2FF;" parent="1" edge="1">
          <mxGeometry width="100" relative="1" as="geometry">
            <mxPoint x="449.0000000000001" y="180" as="sourcePoint" />
            <mxPoint x="432" y="250" as="targetPoint" />
            <Array as="points">
              <mxPoint x="449" y="250" />
            </Array>
          </mxGeometry>
        </mxCell>
        <mxCell id="l1ArFm3nqkwlllE_89NU-76" value="" style="shape=link;html=1;rounded=0;edgeStyle=orthogonalEdgeStyle;exitX=0.5;exitY=1;exitDx=0;exitDy=0;strokeWidth=2;strokeColor=#66B2FF;" parent="1" edge="1">
          <mxGeometry width="100" relative="1" as="geometry">
            <mxPoint x="540.0000000000001" y="180" as="sourcePoint" />
            <mxPoint x="523" y="250" as="targetPoint" />
            <Array as="points">
              <mxPoint x="540" y="250" />
            </Array>
          </mxGeometry>
        </mxCell>
        <mxCell id="l1ArFm3nqkwlllE_89NU-77" value="双CAN冗余控制网络" style="text;html=1;strokeColor=none;fillColor=none;align=center;verticalAlign=middle;whiteSpace=wrap;rounded=0;" parent="1" vertex="1">
          <mxGeometry x="386" y="260" width="70" height="30" as="geometry" />
        </mxCell>
        <mxCell id="l1ArFm3nqkwlllE_89NU-80" value="" style="rounded=0;whiteSpace=wrap;html=1;fillColor=#66b2ff;strokeColor=#6c8ebf;gradientColor=none;" parent="1" vertex="1">
          <mxGeometry x="194" y="330" width="6" height="10" as="geometry" />
        </mxCell>
        <mxCell id="l1ArFm3nqkwlllE_89NU-81" value="" style="rounded=0;whiteSpace=wrap;html=1;fillColor=#66b2ff;strokeColor=#6c8ebf;gradientColor=none;" parent="1" vertex="1">
          <mxGeometry x="200" y="330" width="6" height="10" as="geometry" />
        </mxCell>
        <mxCell id="l1ArFm3nqkwlllE_89NU-82" value="" style="rounded=0;whiteSpace=wrap;html=1;fillColor=#66b2ff;strokeColor=#6c8ebf;gradientColor=none;" parent="1" vertex="1">
          <mxGeometry x="284" y="330" width="6" height="10" as="geometry" />
        </mxCell>
        <mxCell id="l1ArFm3nqkwlllE_89NU-83" value="" style="rounded=0;whiteSpace=wrap;html=1;fillColor=#66b2ff;strokeColor=#6c8ebf;gradientColor=none;" parent="1" vertex="1">
          <mxGeometry x="290" y="330" width="6" height="10" as="geometry" />
        </mxCell>
        <mxCell id="l1ArFm3nqkwlllE_89NU-84" value="" style="rounded=0;whiteSpace=wrap;html=1;fillColor=#66b2ff;strokeColor=#6c8ebf;gradientColor=none;" parent="1" vertex="1">
          <mxGeometry x="371" y="330" width="6" height="10" as="geometry" />
        </mxCell>
        <mxCell id="l1ArFm3nqkwlllE_89NU-85" value="" style="rounded=0;whiteSpace=wrap;html=1;fillColor=#66b2ff;strokeColor=#6c8ebf;gradientColor=none;" parent="1" vertex="1">
          <mxGeometry x="377" y="330" width="6" height="10" as="geometry" />
        </mxCell>
        <mxCell id="l1ArFm3nqkwlllE_89NU-86" value="" style="rounded=0;whiteSpace=wrap;html=1;fillColor=#66b2ff;strokeColor=#6c8ebf;gradientColor=none;" parent="1" vertex="1">
          <mxGeometry x="462" y="330" width="6" height="10" as="geometry" />
        </mxCell>
        <mxCell id="l1ArFm3nqkwlllE_89NU-87" value="" style="rounded=0;whiteSpace=wrap;html=1;fillColor=#66b2ff;strokeColor=#6c8ebf;gradientColor=none;" parent="1" vertex="1">
          <mxGeometry x="468" y="330" width="6" height="10" as="geometry" />
        </mxCell>
        <mxCell id="l1ArFm3nqkwlllE_89NU-88" value="" style="rounded=0;whiteSpace=wrap;html=1;fillColor=#66b2ff;strokeColor=#6c8ebf;gradientColor=none;" parent="1" vertex="1">
          <mxGeometry x="554" y="330" width="6" height="10" as="geometry" />
        </mxCell>
        <mxCell id="l1ArFm3nqkwlllE_89NU-89" value="" style="rounded=0;whiteSpace=wrap;html=1;fillColor=#66b2ff;strokeColor=#6c8ebf;gradientColor=none;" parent="1" vertex="1">
          <mxGeometry x="560" y="330" width="6" height="10" as="geometry" />
        </mxCell>
        <mxCell id="l1ArFm3nqkwlllE_89NU-90" value="" style="rounded=0;whiteSpace=wrap;html=1;fillColor=#66b2ff;strokeColor=#6c8ebf;gradientColor=none;" parent="1" vertex="1">
          <mxGeometry x="644" y="330" width="6" height="10" as="geometry" />
        </mxCell>
        <mxCell id="l1ArFm3nqkwlllE_89NU-91" value="" style="rounded=0;whiteSpace=wrap;html=1;fillColor=#66b2ff;strokeColor=#6c8ebf;gradientColor=none;" parent="1" vertex="1">
          <mxGeometry x="650" y="330" width="6" height="10" as="geometry" />
        </mxCell>
        <mxCell id="l1ArFm3nqkwlllE_89NU-92" value="" style="rounded=0;whiteSpace=wrap;html=1;fillColor=#66b2ff;strokeColor=#6c8ebf;gradientColor=none;" parent="1" vertex="1">
          <mxGeometry x="533" y="170" width="6" height="10" as="geometry" />
        </mxCell>
        <mxCell id="l1ArFm3nqkwlllE_89NU-93" value="" style="rounded=0;whiteSpace=wrap;html=1;fillColor=#66b2ff;strokeColor=#6c8ebf;gradientColor=none;" parent="1" vertex="1">
          <mxGeometry x="539" y="170" width="6" height="10" as="geometry" />
        </mxCell>
        <mxCell id="l1ArFm3nqkwlllE_89NU-94" value="" style="rounded=0;whiteSpace=wrap;html=1;fillColor=#66b2ff;strokeColor=#6c8ebf;gradientColor=none;" parent="1" vertex="1">
          <mxGeometry x="443" y="170" width="6" height="10" as="geometry" />
        </mxCell>
        <mxCell id="l1ArFm3nqkwlllE_89NU-95" value="" style="rounded=0;whiteSpace=wrap;html=1;fillColor=#66b2ff;strokeColor=#6c8ebf;gradientColor=none;" parent="1" vertex="1">
          <mxGeometry x="449" y="170" width="6" height="10" as="geometry" />
        </mxCell>
        <mxCell id="l1ArFm3nqkwlllE_89NU-96" value="" style="rounded=0;whiteSpace=wrap;html=1;fillColor=#66b2ff;strokeColor=#6c8ebf;gradientColor=none;" parent="1" vertex="1">
          <mxGeometry x="339" y="170" width="6" height="10" as="geometry" />
        </mxCell>
        <mxCell id="l1ArFm3nqkwlllE_89NU-97" value="" style="rounded=0;whiteSpace=wrap;html=1;fillColor=#66b2ff;strokeColor=#6c8ebf;gradientColor=none;" parent="1" vertex="1">
          <mxGeometry x="345" y="170" width="6" height="10" as="geometry" />
        </mxCell>
        <mxCell id="l1ArFm3nqkwlllE_89NU-98" value="" style="rounded=0;whiteSpace=wrap;html=1;fillColor=#66b2ff;strokeColor=#6c8ebf;gradientColor=none;" parent="1" vertex="1">
          <mxGeometry x="240" y="170" width="6" height="10" as="geometry" />
        </mxCell>
        <mxCell id="l1ArFm3nqkwlllE_89NU-99" value="" style="rounded=0;whiteSpace=wrap;html=1;fillColor=#66b2ff;strokeColor=#6c8ebf;gradientColor=none;" parent="1" vertex="1">
          <mxGeometry x="246" y="170" width="6" height="10" as="geometry" />
        </mxCell>
        <mxCell id="l1ArFm3nqkwlllE_89NU-100" value="Ethernet&lt;br&gt;SWITCH" style="rounded=0;whiteSpace=wrap;html=1;fillColor=#cdeb8b;strokeColor=#36393d;" parent="1" vertex="1">
          <mxGeometry x="620" y="120" width="90" height="60" as="geometry" />
        </mxCell>
        <mxCell id="l1ArFm3nqkwlllE_89NU-105" value="" style="rounded=0;whiteSpace=wrap;html=1;fillColor=#FFCE9F;strokeColor=#6c8ebf;gradientColor=none;" parent="1" vertex="1">
          <mxGeometry x="700" y="120" width="6" height="10" as="geometry" />
        </mxCell>
        <mxCell id="l1ArFm3nqkwlllE_89NU-106" value="" style="rounded=0;whiteSpace=wrap;html=1;fillColor=#FFCE9F;strokeColor=#6c8ebf;gradientColor=none;" parent="1" vertex="1">
          <mxGeometry x="700" y="170" width="6" height="10" as="geometry" />
        </mxCell>
        <mxCell id="l1ArFm3nqkwlllE_89NU-111" value="" style="rounded=0;whiteSpace=wrap;html=1;fillColor=#FFCE9F;strokeColor=#6c8ebf;gradientColor=none;" parent="1" vertex="1">
          <mxGeometry x="554" y="120" width="6" height="10" as="geometry" />
        </mxCell>
        <mxCell id="l1ArFm3nqkwlllE_89NU-112" value="" style="rounded=0;whiteSpace=wrap;html=1;fillColor=#FFCE9F;strokeColor=#6c8ebf;gradientColor=none;" parent="1" vertex="1">
          <mxGeometry x="462" y="120" width="6" height="10" as="geometry" />
        </mxCell>
        <mxCell id="l1ArFm3nqkwlllE_89NU-113" value="" style="rounded=0;whiteSpace=wrap;html=1;fillColor=#FFCE9F;strokeColor=#6c8ebf;gradientColor=none;" parent="1" vertex="1">
          <mxGeometry x="357" y="120" width="6" height="10" as="geometry" />
        </mxCell>
        <mxCell id="l1ArFm3nqkwlllE_89NU-130" style="edgeStyle=orthogonalEdgeStyle;rounded=0;orthogonalLoop=1;jettySize=auto;html=1;entryX=0.5;entryY=0;entryDx=0;entryDy=0;endArrow=none;endFill=0;strokeWidth=2;strokeColor=#ffce9f;" parent="1" source="l1ArFm3nqkwlllE_89NU-115" target="l1ArFm3nqkwlllE_89NU-105" edge="1">
          <mxGeometry relative="1" as="geometry">
            <mxPoint x="380" y="90" as="targetPoint" />
            <Array as="points">
              <mxPoint x="261" y="90" />
              <mxPoint x="703" y="90" />
            </Array>
          </mxGeometry>
        </mxCell>
        <mxCell id="l1ArFm3nqkwlllE_89NU-115" value="" style="rounded=0;whiteSpace=wrap;html=1;fillColor=#FFCE9F;strokeColor=#6c8ebf;gradientColor=none;" parent="1" vertex="1">
          <mxGeometry x="258" y="120" width="6" height="10" as="geometry" />
        </mxCell>
        <mxCell id="l1ArFm3nqkwlllE_89NU-116" value="" style="rounded=0;whiteSpace=wrap;html=1;fillColor=#FFCE9F;strokeColor=#6c8ebf;gradientColor=none;" parent="1" vertex="1">
          <mxGeometry x="200" y="380" width="6" height="10" as="geometry" />
        </mxCell>
        <mxCell id="l1ArFm3nqkwlllE_89NU-117" value="" style="rounded=0;whiteSpace=wrap;html=1;fillColor=#FFCE9F;strokeColor=#6c8ebf;gradientColor=none;" parent="1" vertex="1">
          <mxGeometry x="290" y="380" width="6" height="10" as="geometry" />
        </mxCell>
        <mxCell id="l1ArFm3nqkwlllE_89NU-118" value="" style="rounded=0;whiteSpace=wrap;html=1;fillColor=#FFCE9F;strokeColor=#6c8ebf;gradientColor=none;" parent="1" vertex="1">
          <mxGeometry x="376" y="380" width="6" height="10" as="geometry" />
        </mxCell>
        <mxCell id="l1ArFm3nqkwlllE_89NU-119" value="" style="rounded=0;whiteSpace=wrap;html=1;fillColor=#FFCE9F;strokeColor=#6c8ebf;gradientColor=none;" parent="1" vertex="1">
          <mxGeometry x="468" y="380" width="6" height="10" as="geometry" />
        </mxCell>
        <mxCell id="l1ArFm3nqkwlllE_89NU-120" value="" style="rounded=0;whiteSpace=wrap;html=1;fillColor=#FFCE9F;strokeColor=#6c8ebf;gradientColor=none;" parent="1" vertex="1">
          <mxGeometry x="647" y="380" width="6" height="10" as="geometry" />
        </mxCell>
        <mxCell id="l1ArFm3nqkwlllE_89NU-121" value="" style="rounded=0;whiteSpace=wrap;html=1;fillColor=#FFCE9F;strokeColor=#6c8ebf;gradientColor=none;" parent="1" vertex="1">
          <mxGeometry x="560" y="380" width="6" height="10" as="geometry" />
        </mxCell>
        <mxCell id="l1ArFm3nqkwlllE_89NU-131" value="" style="line;strokeWidth=2;direction=south;html=1;strokeColor=#ffce9f;" parent="1" vertex="1">
          <mxGeometry x="355" y="90" width="10" height="30" as="geometry" />
        </mxCell>
        <mxCell id="l1ArFm3nqkwlllE_89NU-132" value="" style="line;strokeWidth=2;direction=south;html=1;strokeColor=#ffce9f;" parent="1" vertex="1">
          <mxGeometry x="460" y="90" width="10" height="30" as="geometry" />
        </mxCell>
        <mxCell id="l1ArFm3nqkwlllE_89NU-133" value="" style="line;strokeWidth=2;direction=south;html=1;strokeColor=#ffce9f;" parent="1" vertex="1">
          <mxGeometry x="552" y="90" width="10" height="30" as="geometry" />
        </mxCell>
        <mxCell id="l1ArFm3nqkwlllE_89NU-135" style="edgeStyle=orthogonalEdgeStyle;rounded=0;orthogonalLoop=1;jettySize=auto;html=1;entryX=0.923;entryY=0.996;entryDx=0;entryDy=0;entryPerimeter=0;strokeWidth=2;endArrow=none;endFill=0;strokeColor=#ffce9f;" parent="1" source="l1ArFm3nqkwlllE_89NU-116" target="l1ArFm3nqkwlllE_89NU-100" edge="1">
          <mxGeometry relative="1" as="geometry">
            <Array as="points">
              <mxPoint x="203" y="420" />
              <mxPoint x="703" y="420" />
            </Array>
          </mxGeometry>
        </mxCell>
        <mxCell id="l1ArFm3nqkwlllE_89NU-136" value="" style="line;strokeWidth=2;direction=south;html=1;strokeColor=#ffce9f;" parent="1" vertex="1">
          <mxGeometry x="288" y="390" width="10" height="30" as="geometry" />
        </mxCell>
        <mxCell id="l1ArFm3nqkwlllE_89NU-137" value="" style="line;strokeWidth=2;direction=south;html=1;strokeColor=#ffce9f;" parent="1" vertex="1">
          <mxGeometry x="374" y="390" width="10" height="30" as="geometry" />
        </mxCell>
        <mxCell id="l1ArFm3nqkwlllE_89NU-138" value="" style="line;strokeWidth=2;direction=south;html=1;strokeColor=#ffce9f;" parent="1" vertex="1">
          <mxGeometry x="466" y="390" width="10" height="30" as="geometry" />
        </mxCell>
        <mxCell id="l1ArFm3nqkwlllE_89NU-139" value="" style="line;strokeWidth=2;direction=south;html=1;strokeColor=#ffce9f;" parent="1" vertex="1">
          <mxGeometry x="558" y="390" width="10" height="30" as="geometry" />
        </mxCell>
        <mxCell id="l1ArFm3nqkwlllE_89NU-140" value="" style="line;strokeWidth=2;direction=south;html=1;strokeColor=#ffce9f;" parent="1" vertex="1">
          <mxGeometry x="645" y="390" width="10" height="30" as="geometry" />
        </mxCell>
        <mxCell id="l1ArFm3nqkwlllE_89NU-141" value="Ethernet" style="text;html=1;strokeColor=none;fillColor=none;align=center;verticalAlign=middle;whiteSpace=wrap;rounded=0;" parent="1" vertex="1">
          <mxGeometry x="386" y="396" width="70" height="30" as="geometry" />
        </mxCell>
        <mxCell id="l1ArFm3nqkwlllE_89NU-142" value="Ethernet" style="text;html=1;strokeColor=none;fillColor=none;align=center;verticalAlign=middle;whiteSpace=wrap;rounded=0;" parent="1" vertex="1">
          <mxGeometry x="386" y="90" width="70" height="30" as="geometry" />
        </mxCell>
        <mxCell id="lHHxEUQEhCc_uOO8Jhd7-2" value="" style="shape=hexagon;perimeter=hexagonPerimeter2;whiteSpace=wrap;html=1;fixedSize=1;rotation=-90;fillColor=#d5e8d4;strokeColor=#82b366;" vertex="1" parent="1">
          <mxGeometry x="194" y="530" width="84" height="20" as="geometry" />
        </mxCell>
        <mxCell id="lHHxEUQEhCc_uOO8Jhd7-3" value="燃油增压" style="shape=hexagon;perimeter=hexagonPerimeter2;whiteSpace=wrap;html=1;fixedSize=1;rotation=-90;fillColor=#d5e8d4;strokeColor=#82b366;" vertex="1" parent="1">
          <mxGeometry x="201" y="530" width="84" height="20" as="geometry" />
        </mxCell>
        <mxCell id="lHHxEUQEhCc_uOO8Jhd7-5" value="缸压" style="shape=hexagon;perimeter=hexagonPerimeter2;whiteSpace=wrap;html=1;fixedSize=1;rotation=-90;fillColor=#fad9d5;strokeColor=#ae4132;" vertex="1" parent="1">
          <mxGeometry x="456" y="530" width="84" height="20" as="geometry" />
        </mxCell>
        <mxCell id="lHHxEUQEhCc_uOO8Jhd7-7" value="" style="shape=hexagon;perimeter=hexagonPerimeter2;whiteSpace=wrap;html=1;fixedSize=1;rotation=-90;fillColor=#fad9d5;strokeColor=#ae4132;" vertex="1" parent="1">
          <mxGeometry x="484" y="530" width="84" height="20" as="geometry" />
        </mxCell>
        <mxCell id="lHHxEUQEhCc_uOO8Jhd7-8" value="增压阀位置" style="shape=hexagon;perimeter=hexagonPerimeter2;whiteSpace=wrap;html=1;fixedSize=1;rotation=-90;fillColor=#fad9d5;strokeColor=#ae4132;" vertex="1" parent="1">
          <mxGeometry x="490" y="530" width="84" height="20" as="geometry" />
        </mxCell>
        <mxCell id="lHHxEUQEhCc_uOO8Jhd7-9" value="排气温度" style="shape=hexagon;perimeter=hexagonPerimeter2;whiteSpace=wrap;html=1;fixedSize=1;rotation=-90;fillColor=#fad9d5;strokeColor=#ae4132;" vertex="1" parent="1">
          <mxGeometry x="520" y="530" width="84" height="20" as="geometry" />
        </mxCell>
        <mxCell id="lHHxEUQEhCc_uOO8Jhd7-10" value="注油器压力" style="shape=hexagon;perimeter=hexagonPerimeter2;whiteSpace=wrap;html=1;fixedSize=1;rotation=-90;fillColor=#fad9d5;strokeColor=#ae4132;" vertex="1" parent="1">
          <mxGeometry x="548" y="530" width="84" height="20" as="geometry" />
        </mxCell>
        <mxCell id="lHHxEUQEhCc_uOO8Jhd7-12" value="排气阀位置" style="shape=hexagon;perimeter=hexagonPerimeter2;whiteSpace=wrap;html=1;fixedSize=1;rotation=-90;fillColor=#fad9d5;strokeColor=#ae4132;" vertex="1" parent="1">
          <mxGeometry x="574" y="530" width="84" height="20" as="geometry" />
        </mxCell>
        <mxCell id="lHHxEUQEhCc_uOO8Jhd7-16" style="edgeStyle=orthogonalEdgeStyle;rounded=0;orthogonalLoop=1;jettySize=auto;html=1;exitX=0.25;exitY=1;exitDx=0;exitDy=0;strokeColor=#33FF33;strokeWidth=2;" edge="1" parent="1" source="lHHxEUQEhCc_uOO8Jhd7-15" target="lHHxEUQEhCc_uOO8Jhd7-13">
          <mxGeometry relative="1" as="geometry">
            <Array as="points">
              <mxPoint x="173" y="390" />
              <mxPoint x="173" y="460" />
              <mxPoint x="315" y="460" />
            </Array>
          </mxGeometry>
        </mxCell>
        <mxCell id="lHHxEUQEhCc_uOO8Jhd7-15" value="" style="rounded=0;whiteSpace=wrap;html=1;fillColor=#97D077;strokeColor=#6c8ebf;gradientColor=none;" vertex="1" parent="1">
          <mxGeometry x="170" y="380" width="6" height="10" as="geometry" />
        </mxCell>
        <mxCell id="lHHxEUQEhCc_uOO8Jhd7-18" value="" style="rounded=0;whiteSpace=wrap;html=1;fillColor=#fad9d5;strokeColor=#6c8ebf;gradientColor=none;" vertex="1" parent="1">
          <mxGeometry x="180" y="380" width="6" height="10" as="geometry" />
        </mxCell>
        <mxCell id="lHHxEUQEhCc_uOO8Jhd7-19" style="edgeStyle=orthogonalEdgeStyle;rounded=0;orthogonalLoop=1;jettySize=auto;html=1;exitX=0.5;exitY=0;exitDx=0;exitDy=0;entryX=0.429;entryY=0.881;entryDx=0;entryDy=0;entryPerimeter=0;strokeColor=#fad9d5;strokeWidth=2;" edge="1" parent="1" source="lHHxEUQEhCc_uOO8Jhd7-14">
          <mxGeometry relative="1" as="geometry">
            <mxPoint x="533" y="471.19" as="sourcePoint" />
            <mxPoint x="183.574" y="390.00000000000006" as="targetPoint" />
            <Array as="points">
              <mxPoint x="533" y="490" />
              <mxPoint x="533" y="450" />
              <mxPoint x="184" y="450" />
            </Array>
          </mxGeometry>
        </mxCell>
        <mxCell id="lHHxEUQEhCc_uOO8Jhd7-20" value="" style="rounded=0;whiteSpace=wrap;html=1;fillColor=#97D077;strokeColor=#6c8ebf;gradientColor=none;" vertex="1" parent="1">
          <mxGeometry x="262" y="380" width="6" height="10" as="geometry" />
        </mxCell>
        <mxCell id="lHHxEUQEhCc_uOO8Jhd7-21" value="" style="rounded=0;whiteSpace=wrap;html=1;fillColor=#fad9d5;strokeColor=#6c8ebf;gradientColor=none;" vertex="1" parent="1">
          <mxGeometry x="272" y="380" width="6" height="10" as="geometry" />
        </mxCell>
        <mxCell id="lHHxEUQEhCc_uOO8Jhd7-22" value="" style="rounded=0;whiteSpace=wrap;html=1;fillColor=#97D077;strokeColor=#6c8ebf;gradientColor=none;" vertex="1" parent="1">
          <mxGeometry x="349" y="380" width="6" height="10" as="geometry" />
        </mxCell>
        <mxCell id="lHHxEUQEhCc_uOO8Jhd7-23" value="" style="rounded=0;whiteSpace=wrap;html=1;fillColor=#fad9d5;strokeColor=#6c8ebf;gradientColor=none;" vertex="1" parent="1">
          <mxGeometry x="359" y="380" width="6" height="10" as="geometry" />
        </mxCell>
        <mxCell id="lHHxEUQEhCc_uOO8Jhd7-24" value="" style="rounded=0;whiteSpace=wrap;html=1;fillColor=#97D077;strokeColor=#6c8ebf;gradientColor=none;" vertex="1" parent="1">
          <mxGeometry x="438" y="380" width="6" height="10" as="geometry" />
        </mxCell>
        <mxCell id="lHHxEUQEhCc_uOO8Jhd7-25" value="" style="rounded=0;whiteSpace=wrap;html=1;fillColor=#fad9d5;strokeColor=#6c8ebf;gradientColor=none;" vertex="1" parent="1">
          <mxGeometry x="448" y="380" width="6" height="10" as="geometry" />
        </mxCell>
        <mxCell id="lHHxEUQEhCc_uOO8Jhd7-26" value="" style="rounded=0;whiteSpace=wrap;html=1;fillColor=#97D077;strokeColor=#6c8ebf;gradientColor=none;" vertex="1" parent="1">
          <mxGeometry x="532" y="380" width="6" height="10" as="geometry" />
        </mxCell>
        <mxCell id="lHHxEUQEhCc_uOO8Jhd7-27" value="" style="rounded=0;whiteSpace=wrap;html=1;fillColor=#fad9d5;strokeColor=#6c8ebf;gradientColor=none;" vertex="1" parent="1">
          <mxGeometry x="542" y="380" width="6" height="10" as="geometry" />
        </mxCell>
        <mxCell id="lHHxEUQEhCc_uOO8Jhd7-28" value="" style="rounded=0;whiteSpace=wrap;html=1;fillColor=#97D077;strokeColor=#6c8ebf;gradientColor=none;" vertex="1" parent="1">
          <mxGeometry x="620" y="380" width="6" height="10" as="geometry" />
        </mxCell>
        <mxCell id="lHHxEUQEhCc_uOO8Jhd7-29" value="" style="rounded=0;whiteSpace=wrap;html=1;fillColor=#fad9d5;strokeColor=#6c8ebf;gradientColor=none;" vertex="1" parent="1">
          <mxGeometry x="630" y="380" width="6" height="10" as="geometry" />
        </mxCell>
        <mxCell id="lHHxEUQEhCc_uOO8Jhd7-30" value="Control" style="text;html=1;strokeColor=none;fillColor=none;align=center;verticalAlign=middle;whiteSpace=wrap;rounded=0;" vertex="1" parent="1">
          <mxGeometry x="180" y="452" width="120" height="30" as="geometry" />
        </mxCell>
        <mxCell id="lHHxEUQEhCc_uOO8Jhd7-31" value="Sensor" style="text;html=1;strokeColor=none;fillColor=none;align=center;verticalAlign=middle;whiteSpace=wrap;rounded=0;" vertex="1" parent="1">
          <mxGeometry x="339" y="444" width="138" height="30" as="geometry" />
        </mxCell>
      </root>
    </mxGraphModel>
  </diagram>
</mxfile>
